<svg width="54" height="54" viewBox="0 0 54 54" fill="none" xmlns="http://www.w3.org/2000/svg">
<rect width="54" height="54" rx="27" fill="#F73C48"/>
<path d="M25.3903 13.9427C26.5175 11.6467 27.173 9.30503 28.1577 7.10076C28.3938 6.57236 28.3211 5.41013 29.1995 5.73724C29.8681 5.98622 29.1571 6.80814 28.9774 7.33748C28.1855 9.66968 27.0614 11.883 26.3848 14.4776C28.3048 13.3792 29.9331 14.1515 31.6839 14.9335C31.9657 15.2454 32.1296 15.5074 32.3757 15.8167C33.4478 15.7856 33.612 16.5934 33.8126 17.236C34.6006 19.76 33.6751 21.7983 31.7582 23.3861C30.0814 24.775 28.1656 25.7287 25.7707 25.58C25.2056 25.6026 24.7549 25.6745 24.2219 25.7976C23.2551 25.6309 22.9014 25.6842 23.142 26.8463C24.4946 33.3804 26.6023 39.6238 29.8671 45.4631C30.4167 46.446 30.8274 47.5074 31.2849 48.5403C31.4774 48.9751 31.6478 49.4452 31.0022 49.6745C30.4811 49.8596 30.2655 49.5545 30.1114 49.1085C28.9327 45.6966 26.9262 42.6662 25.534 39.2411C25.2754 38.9237 25.0215 38.7491 24.7241 38.4571C23.1655 35.1561 22.5691 31.6752 21.6477 28.1863C20.4739 31.0575 19.3872 33.846 18.2334 36.7283C18.0707 36.9407 17.9525 37.0378 17.7208 37.1785C17.1665 37.6745 16.7119 38.1174 16.4844 36.9493C16.4758 36.7962 16.4916 36.7461 16.5172 36.6178C19.1926 28.9426 22.4253 21.5692 25.3903 13.9427Z" fill="black"/>
<path d="M25.3903 13.9427C26.5175 11.6467 27.173 9.30503 28.1577 7.10076C28.3938 6.57236 28.3211 5.41013 29.1995 5.73724C29.8681 5.98622 29.1571 6.80814 28.9774 7.33748C28.1855 9.66968 27.0614 11.883 26.3848 14.4776C28.3048 13.3792 29.9331 14.1515 31.6839 14.9335C31.9657 15.2454 32.1296 15.5074 32.3757 15.8167C33.4478 15.7856 33.612 16.5934 33.8126 17.236C34.6006 19.76 33.6751 21.7983 31.7582 23.3861C30.0814 24.775 28.1656 25.7287 25.7707 25.58C25.2056 25.6026 24.7549 25.6745 24.2219 25.7976C23.2551 25.6309 22.9014 25.6842 23.142 26.8463C24.4946 33.3804 26.6023 39.6238 29.8671 45.4631C30.4167 46.446 30.8274 47.5074 31.2849 48.5403C31.4774 48.9751 31.6478 49.4452 31.0022 49.6745C30.4811 49.8596 30.2655 49.5545 30.1114 49.1085C28.9327 45.6966 26.9262 42.6662 25.534 39.2411C25.2754 38.9237 25.0215 38.7491 24.7241 38.4571C23.1655 35.1561 22.5691 31.6752 21.6477 28.1863C20.4739 31.0575 19.3872 33.846 18.2334 36.7283C18.0707 36.9407 17.9525 37.0378 17.7208 37.1785C17.1665 37.6745 16.7119 38.1174 16.4844 36.9493C16.4758 36.7962 16.4916 36.7461 16.5172 36.6178C19.1926 28.9426 22.4253 21.5692 25.3903 13.9427Z" stroke="black" stroke-width="0.983762"/>
<path d="M25.3903 13.9427C26.5175 11.6467 27.173 9.30503 28.1577 7.10076C28.3938 6.57236 28.3211 5.41013 29.1995 5.73724C29.8681 5.98622 29.1571 6.80814 28.9774 7.33748C28.1855 9.66968 27.0614 11.883 26.3848 14.4776C28.3048 13.3792 29.9331 14.1515 31.6839 14.9335C31.9657 15.2454 32.1296 15.5074 32.3757 15.8167C33.4478 15.7856 33.612 16.5934 33.8126 17.236C34.6006 19.76 33.6751 21.7983 31.7582 23.3861C30.0814 24.775 28.1656 25.7287 25.7707 25.58C25.2056 25.6026 24.7549 25.6745 24.2219 25.7976C23.2551 25.6309 22.9014 25.6842 23.142 26.8463C24.4946 33.3804 26.6023 39.6238 29.8671 45.4631C30.4167 46.446 30.8274 47.5074 31.2849 48.5403C31.4774 48.9751 31.6478 49.4452 31.0022 49.6745C30.4811 49.8596 30.2655 49.5545 30.1114 49.1085C28.9327 45.6966 26.9262 42.6662 25.534 39.2411C25.2754 38.9237 25.0215 38.7491 24.7241 38.4571C23.1655 35.1561 22.5691 31.6752 21.6477 28.1863C20.4739 31.0575 19.3872 33.846 18.2334 36.7283C18.0707 36.9407 17.9525 37.0378 17.7208 37.1785C17.1665 37.6745 16.7119 38.1174 16.4844 36.9493C16.4758 36.7962 16.4916 36.7461 16.5172 36.6178C19.1926 28.9426 22.4253 21.5692 25.3903 13.9427Z" stroke="black" stroke-opacity="0.2" stroke-width="0.983762"/>
</svg>
